<!DOCTYPE svg PUBLIC "-//W3C//DTD SVG 1.1//EN" "http://www.w3.org/Graphics/SVG/1.1/DTD/svg11.dtd">
<!-- Uploaded to: SVG Repo, www.svgrepo.com, Transformed by: SVG Repo Mixer Tools -->
<svg fill="#ffffff" width="800px" height="800px" viewBox="-12.8 -12.8 153.60 153.60" id="Layer_1" version="1.1" xml:space="preserve" xmlns="http://www.w3.org/2000/svg" xmlns:xlink="http://www.w3.org/1999/xlink" transform="matrix(1, 0, 0, -1, 0, 0)rotate(-45)">
<g id="SVGRepo_bgCarrier" stroke-width="0" transform="translate(0,0), scale(1)">
<path transform="translate(-12.8, -12.8), scale(4.8)" d="M16,29.690513083977358C18.66675982601922,29.680604540696955,21.438647908586304,29.391209339447947,23.6213205339437,27.859006232997807C25.766795571428197,26.352915269536574,26.751865345761665,23.79180189112487,27.815718431365113,21.396057802341446C28.869110068611313,19.023872373490644,30.066047216618546,16.598890585280948,29.76635411645123,14.020697090605966C29.463081451874142,11.411709394563353,27.795953607369995,9.250833444872494,26.16464995643562,7.192280675174906C24.468385981362463,5.051754046656032,22.829350742399747,2.388462910360908,20.14585250094396,1.88052304321808C17.480269608718146,1.3759742422466799,15.268758923865365,3.880271101743527,12.663444551679401,4.63673568780812C10.04696045524517,5.396443452861063,6.958801216028776,4.618630595411129,4.835539878147607,6.325940235234572C2.613161934437293,8.112949313643163,1.556886421188827,11.04250510779106,1.181415583705654,13.8694092132047C0.8082021473477745,16.67931744071892,1.4593042520862516,19.527212188906343,2.7467209698882638,22.052569730098096C3.999091501384298,24.50918173641058,5.953118256217912,26.538937767517666,8.342195139699,27.91577695294732C10.659359870566593,29.251172738078115,13.325596225315424,29.700450028914123,16,29.690513083977358" fill="#2653ee" strokewidth="0"/>
</g>
<g id="SVGRepo_tracerCarrier" stroke-linecap="round" stroke-linejoin="round" stroke="#CCCCCC" stroke-width="0.256"/>
<g id="SVGRepo_iconCarrier"> <g> <path d="M72.907,45.526H58.482l2.874-24.867c0.681-3.322-0.089-6.589-2.084-8.927c-0.22-0.283-0.451-0.532-0.639-0.696 c-1.989-2.016-4.65-3.126-7.492-3.126c-2.489,0-4.925,0.888-6.867,2.506c-2.865,2.438-4.148,6.39-3.361,10.228l2.864,24.883H27.039 c-3.375,0-6.12,2.745-6.12,6.12v62.257c0,3.362,2.746,6.097,6.12,6.097h45.869c3.375,0,6.12-2.735,6.12-6.097V51.646 C79.027,48.271,76.282,45.526,72.907,45.526z M77.027,113.903c0,2.259-1.848,4.097-4.12,4.097H27.039 c-2.272,0-4.12-1.838-4.12-4.097V51.646c0-2.271,1.848-4.12,4.12-4.12h17.861c0,0,0,0,0.001,0c0.038,0,0.076-0.002,0.114-0.006 c0.049-0.006,0.089-0.032,0.136-0.044c0.065-0.017,0.129-0.032,0.188-0.061c0.058-0.029,0.106-0.067,0.157-0.106 c0.051-0.039,0.101-0.075,0.144-0.123c0.043-0.048,0.073-0.102,0.106-0.158c0.033-0.055,0.065-0.106,0.087-0.167 c0.023-0.063,0.03-0.129,0.04-0.197c0.007-0.047,0.028-0.089,0.028-0.137c0-0.02-0.01-0.036-0.011-0.056 c-0.001-0.02,0.007-0.038,0.005-0.058L42.887,20.33c-0.655-3.209,0.374-6.425,2.676-8.384c1.576-1.313,3.557-2.036,5.579-2.036 c2.303,0,4.458,0.899,6.116,2.576c0.144,0.128,0.291,0.288,0.464,0.509c1.597,1.873,2.223,4.588,1.662,7.349l-3.016,26.067 c-0.002,0.02,0.006,0.037,0.005,0.057c-0.001,0.02-0.012,0.037-0.012,0.058c0,0.05,0.021,0.092,0.028,0.14 c0.01,0.066,0.017,0.131,0.039,0.193c0.022,0.062,0.055,0.114,0.088,0.17c0.033,0.055,0.063,0.108,0.105,0.156 c0.043,0.049,0.094,0.085,0.146,0.125c0.05,0.038,0.098,0.076,0.155,0.104c0.06,0.03,0.125,0.045,0.192,0.062 c0.046,0.012,0.084,0.038,0.133,0.043c0.02,0.003,0.039-0.006,0.059-0.005c0.02,0.001,0.036,0.011,0.056,0.011h15.547 c2.272,0,4.12,1.848,4.12,4.12V113.903z"/> <path d="M51.142,13.052c-3.13,0-5.676,2.546-5.676,5.675s2.546,5.676,5.676,5.676s5.676-2.546,5.676-5.676 S54.271,13.052,51.142,13.052z M51.142,22.403c-2.027,0-3.676-1.649-3.676-3.676c0-2.026,1.649-3.675,3.676-3.675 s3.676,1.649,3.676,3.675C54.817,20.754,53.168,22.403,51.142,22.403z"/> <path d="M85.351,22.147c-0.722,0-1.31,0.587-1.31,1.31v55.799v34.308c0,2.259,1.838,4.098,4.098,4.098h7.832 c2.259,0,4.098-1.838,4.098-4.098V80.256h6.014c0.552,0,1-0.448,1-1V43.879C107.082,31.896,97.333,22.147,85.351,22.147z M95.97,115.662h-7.832c-1.157,0-2.098-0.941-2.098-2.098V84.932h12.027v28.632C98.068,114.721,97.127,115.662,95.97,115.662z M98.068,82.932H86.041v-2.676h12.027V82.932z M105.082,78.256h-6.014H86.041V24.159c10.561,0.365,19.041,9.071,19.041,19.72 V78.256z"/> </g> </g>
</svg>