
<svg xmlns="http://www.w3.org/2000/svg" width="24" height="24" viewBox="0 0 24 24">

  <symbol id="ellipsis">
    <svg
      xmlns="http://www.w3.org/2000/svg"
      width="24"
      height="24"
      viewBox="0 0 24 24"
    >
      <path d="M7 12a2 2 0 1 1-4.001-.001A2 2 0 0 1 7 12m12-2a2 2 0 1 0 .001 4.001A2 2 0 0 0 19 10m-7 0a2 2 0 1 0 .001 4.001A2 2 0 0 0 12 10" />
    </svg>
  </symbol>

  <symbol id="plus">
    <svg
      xmlns="http://www.w3.org/2000/svg"
      width="24"
      height="24"
      viewBox="0 0 24 24"
    >
      <path d="M19 3h-4.18C14.4 1.84 13.3 1 12 1s-2.4.84-2.82 2H5a2 2 0 0 0-2 2v14a2 2 0 0 0 2 2h14a2 2 0 0 0 2-2V5a2 2 0 0 0-2-2m-7 0a1 1 0 0 1 1 1a1 1 0 0 1-1 1a1 1 0 0 1-1-1a1 1 0 0 1 1-1m1 9h3v2h-3v3h-2v-3H8v-2h3V9h2z" />
    </svg>
  </symbol>

  <symbol id="trashcan">
    <svg
      xmlns="http://www.w3.org/2000/svg"
      width="24"
      height="24"
      viewBox="0 0 24 24"
    >
      <path d="M19 4h-3.5l-1-1h-5l-1 1H5v2h14M6 19a2 2 0 0 0 2 2h8a2 2 0 0 0 2-2V7H6z" />
    </svg>
  </symbol>

  <symbol id="pencil">
    <svg
      xmlns="http://www.w3.org/2000/svg"
      width="24"
      height="24"
      viewBox="0 0 24 24"
    >
      <path
        strokeLinecap="round"
        strokeLinejoin="round"
        strokeWidth="1.5"
        d="M14.44 5.78L4.198 16.02a2 2 0 0 0-.565 1.125l-.553 3.774l3.775-.553A2 2 0 0 0 7.98 19.8L18.22 9.56m-3.78-3.78l2.229-2.23a1.6 1.6 0 0 1 2.263 0l1.518 1.518a1.6 1.6 0 0 1 0 2.263l-2.23 2.23M14.44 5.78l3.78 3.78"
      />
    </svg>
  </symbol>
  <symbol>
  </symbol>
</svg>

